#format: frame checksums
#version: 2
#hash: MD5
#tb 0: 1/8000
#media_type 0: audio
#codec_id 0: pcm_s16le
#sample_rate 0: 8000
#channel_layout_name 0: mono
#stream#, dts,        pts, duration,     size, hash
0,          0,          0,      256,      512, b8209caf00d7afe20c2bc78109992cc0
0,        256,        256,      256,      512, 782cead506882a4af4269e173ac36fbd
0,        512,        512,      256,      512, c97d8c3d042b11be23267fe9c56e4828
0,        768,        768,      256,      512, 873f92b023a822d0e1d7d788e7f1ec75
0,       1024,       1024,      256,      512, 77f9214ced3066061370ed8e9ca7baf1
0,       1280,       1280,      256,      512, 797fc777226b35c9c7f3fd07add2dd55
0,       1536,       1536,      256,      512, ac6d0e41c044266550bff7181d08255f
0,       1792,       1792,      256,      512, e2633a2d305ae71ea8549e0fdfc36cb6
0,       2048,       2048,      256,      512, c05b872ccb26b31c4a67258fd2d6c9bb
0,       2304,       2304,      256,      512, 6694cb7bfcef7449dfbf91fff5ecd51a
0,       2560,       2560,      256,      512, ef05c5ad8ee24529d46938aaf7a25714
0,       2816,       2816,      256,      512, bdab9ec84762e37c128452bc7c5b01de
0,       3072,       3072,      256,      512, c06f6b812165889cbaef0f3206a29716
0,       3328,       3328,      256,      512, 3287bc3983bdabd9a0c87ce71c98e5f7
0,       3584,       3584,      256,      512, c79fd1e93b15b16cd79b14a447111993
0,       3840,       3840,      256,      512, 08c45e77a9372c523b7a01ef931aa586
0,       4096,       4096,      256,      512, fb0a2956f9bf17ddeca655c6d13db3a0
0,       4352,       4352,      256,      512, ceaeccd9d19cba41fa2f5e578fb683e7
0,       4608,       4608,      256,      512, 830e3706de4a09a58e91b11aa8d3df89
0,       4864,       4864,      256,      512, 8ee08c1d1e08aa06b0d333e5054e206e
0,       5120,       5120,      256,      512, af7c1604dc4f917201ee01de964558c3
0,       5376,       5376,      256,      512, 1d44490e8e2fe8756387de8d66f641e8
0,       5632,       5632,      256,      512, c38792ba77cd805a650de3202f7a7413
0,       5888,       5888,      256,      512, 38ff1e86ce58cda492667bc204dc5f20
0,       6144,       6144,      256,      512, 6cd5ffa80f44c9cf7755c696bd3d3dd9
0,       6400,       6400,      256,      512, 7bb9ab2aa1516ba4801f1a13445ef983
0,       6656,       6656,      256,      512, 21af0248b37815dd270326b5c1179e1e
0,       6912,       6912,      256,      512, ecd4f3481122911183ead8146830d1d6
0,       7168,       7168,      256,      512, 221360a5286a741b22a42f8671c774c3
0,       7424,       7424,      256,      512, 3721fa451c55692a92f48b250a4e7e76
0,       7680,       7680,      256,      512, 4c40fe5904fa0ac79227631035a1efae
0,       7936,       7936,      256,      512, d788331dd90ddc98568068fa2077a626
0,       8192,       8192,      256,      512, 42b954d17f324fc65f1200190b2febd1
0,       8448,       8448,      256,      512, e18b2124c682a843f3a17404c05e1339
0,       8704,       8704,      256,      512, 078de5e38b77e859282c4ecf7f3210df
0,       8960,       8960,      256,      512, 33eced7551e15f02ad0e88ee06fcd7c2
0,       9216,       9216,      256,      512, 858f87254002602fcecd5b8919a49d42
0,       9472,       9472,      256,      512, c220debc23f4cbc65b7daf5e69563f5d
0,       9728,       9728,      256,      512, f888d38ba4b877c7e6c318c1746fb472
0,       9984,       9984,      256,      512, df1900fd3cf1aae60d3d2caaf1358416
0,      10240,      10240,      256,      512, ab977068c2424735360e46cbb3f52885
0,      10496,      10496,      256,      512, f88294e0ff2fe9793e9cfc255ef12cbb
0,      10752,      10752,      256,      512, e70acc5e592a94e1afcc40e722bdb4af
0,      11008,      11008,      256,      512, 5eab2458e33241a112833b8baaf53878
0,      11264,      11264,      256,      512, cda4cef2931c9d1753dee1ac36f7144b
0,      11520,      11520,      256,      512, fd5a6c3316493aeb0587b1aa99887c5d
0,      11776,      11776,      256,      512, 3c9ef3a8854b8ddb9f88927fbefb4d4c
0,      12032,      12032,      256,      512, b686ba33d061e21c380a7f0878bc1780
0,      12288,      12288,      256,      512, 2f10a363897de1de801f93d5210d0790
0,      12544,      12544,      256,      512, d3a56b206ef6b0d08745fb3c95ad9329
0,      12800,      12800,      256,      512, aac0799bdaed8b2b031f47e5e9fe2896
0,      13056,      13056,      256,      512, 4896e7b397e251529d7a80c0cdd7ec43
0,      13312,      13312,      256,      512, 1020a546ebff044f743005bad92ec876
0,      13568,      13568,      256,      512, 7e2fc5f304936258839dd21939893ad4
0,      13824,      13824,      256,      512, fe81625d1a68b49991395ec44b23b0eb
0,      14080,      14080,      256,      512, 70e1ed5c8340c51f3e119dfb7c6edc79
0,      14336,      14336,      256,      512, 95d0cc1f9db28aba0d0cafd01831d86f
0,      14592,      14592,      256,      512, cb32b346c14ba2c6a3261dab2fa5d4d7
0,      14848,      14848,      256,      512, 22d44d75244a23e75ef28b8fd7ef48a0
0,      15104,      15104,      256,      512, d66e19e00d68e21595391d0f82c4f205
0,      15360,      15360,      256,      512, 2b382665ce34d702aadbda14b15d9a8c
0,      15616,      15616,      256,      512, b4d4915b03b3afb3853e98e90fe19ecb
0,      15872,      15872,      256,      512, 8e06e8e7da4ab15b5f56311f2a936343
0,      16128,      16128,      256,      512, c25c479188f37b5c3481f3e0fdebd2a4
0,      16384,      16384,      256,      512, 1bb28ab00e8945b6c3d62b31a6200e5f
0,      16640,      16640,      256,      512, d0a2ced3bae9070dc3f9633893a3723d
0,      16896,      16896,      256,      512, 84ff882e0730c753ef6ca207f6c5da8c
0,      17152,      17152,      256,      512, cab8b62beea92454047ab3fec6ee3f83
0,      17408,      17408,      256,      512, 5fe00b7b7be034b65a37f0783e6a7102
0,      17664,      17664,      256,      512, 23912531a31a7fd095c9c7e26018ec1b
0,      17920,      17920,      256,      512, 63a32583fb536f02b3edbf0054131bcc
0,      18176,      18176,      256,      512, b6fb4de032e2aff254289542216cbd3e
0,      18432,      18432,      256,      512, f0e0cda0af0b8f9247495cdd9c658daf
0,      18688,      18688,      256,      512, a166683571ddb09ef410b12bf04e66a1
0,      18944,      18944,      256,      512, 3e02391688de7b2454100769a263cbce
0,      19200,      19200,      256,      512, be58b2c870ae1df55dfd802ca187d009
0,      19456,      19456,      256,      512, 0a40526ad06314b28f2e809405892b59
0,      19712,      19712,      256,      512, b7fe4c4c2d9a68f01c41234f3ecdae04
0,      19968,      19968,      256,      512, 51f452e94842ad76c50052830539e27c
0,      20224,      20224,      256,      512, 9cdcc5b6aa941f44b9acce14c00f514b
0,      20480,      20480,      256,      512, 283ac575ae2b7bdec6613b67d4ce428e
0,      20736,      20736,      256,      512, 196b715e7ce36397c11c19108447d303
0,      20992,      20992,      256,      512, 8f4d76969c5efed48cf222e309525fa4
0,      21248,      21248,      256,      512, a4e5fb5d47c2c0dbbbae67e761610e77
0,      21504,      21504,      256,      512, d8bdbf2a5f2da6dfc2630a3d1bbd2b34
0,      21760,      21760,      256,      512, 32e82dca6959b728d22821cc66faad1d
0,      22016,      22016,      256,      512, 38171825b5c50437f071d84393a96da3
0,      22272,      22272,      256,      512, 41d20ffbdb2d30aa8eb1a83be51dcb18
0,      22528,      22528,      256,      512, c8ebf2ec56d7cb9fda8afea9d5ac9012
0,      22784,      22784,      256,      512, 10c82887d8262040575e657c366cf0e7
0,      23040,      23040,      256,      512, 018a4e8033f5208290fbd9573362dcc0
0,      23296,      23296,      256,      512, 0f023f34a4b4c788c86334974eed269d
0,      23552,      23552,      256,      512, cd17e252d73d7bd810fa8702e7a3afd4
0,      23808,      23808,      256,      512, 84ff60e7ae1167d627506057d978598e
0,      24064,      24064,      256,      512, 1db17742a21567f88323f24ba55cf7d7
0,      24320,      24320,      256,      512, ec67cabb80871e3bea210cd8d4cff4b1
0,      24576,      24576,      256,      512, a90bc1fa66bd16231c8eae2f93d86d4f
0,      24832,      24832,      256,      512, 2fd344a827768f72dffe0b39fd25f90c
0,      25088,      25088,      256,      512, 80adb51d55382f824876381617c1849d
0,      25344,      25344,      256,      512, 94b81c7d3b885d47221c938fd9d17eb2
0,      25600,      25600,      256,      512, 17b843796133539342cfff9ccdbf72d0
0,      25856,      25856,      256,      512, e81dab37e22b4c01b948394819e4fd14
0,      26112,      26112,      256,      512, 632492a1da12bee17ad68c9612c92ac5
0,      26368,      26368,      256,      512, 7b59e48ebd618262dc057b8f42f4566d
0,      26624,      26624,      256,      512, bf7f5cdf2e26783d9cb5b79f1baa48fa
0,      26880,      26880,      256,      512, 2b52a604aad33446905f600c68160c6b
0,      27136,      27136,      256,      512, c223d71e93fa5a11a490662187658d76
0,      27392,      27392,      256,      512, 3b080e37f305de8d7223a2256a0f654d
0,      27648,      27648,      256,      512, dbdb7daa6efbae644c8e7cd8b8f7add3
0,      27904,      27904,      256,      512, 5e2e6a4770ddaa3b4e108882d8ca8e56
0,      28160,      28160,      256,      512, 7abc1c2cfa747eeba9d278239e994003
0,      28416,      28416,      256,      512, 42e6616cd8b2eee29be2e37aede22613
0,      28672,      28672,      256,      512, 1fbea38c19f04dcb4ad315e0bfcfb289
0,      28928,      28928,      256,      512, 4f98b21810945af9c9220396924c519a
0,      29184,      29184,      256,      512, 0f0eef9847eaf2661e0bf4a04976643b
0,      29440,      29440,      256,      512, 566c75d21879a737213651973627b334
0,      29696,      29696,      256,      512, 12e3f061f4d06cef04d22374be4246dd
0,      29952,      29952,      256,      512, 5a98a57dada8a6ee79fdd37e249a545e
0,      30208,      30208,      256,      512, 26ef3eb64978854407e819bd4549e6f1
0,      30464,      30464,      256,      512, ab1aa2db484e187dc3bad858316c0c02
0,      30720,      30720,      256,      512, fa4d6aa06fcc6b1fc4245eaa1c6ed19a
0,      30976,      30976,      256,      512, ef219f54a7eedfad1638da9c1ed5c009
0,      31232,      31232,      256,      512, d0f225cdd842cca6db31f3ee8497b075
0,      31488,      31488,      256,      512, 9cf9db9d38cd441b6d1b31b24d9f6a00
0,      31744,      31744,      256,      512, ea9bc707dd0ce662794f193719d7dfa1
0,      32000,      32000,      256,      512, d8ad8775f2b33f3b9d90c85cc46dc933
0,      32256,      32256,      256,      512, db8de51b8f9f8107003e468e1492a97c
0,      32512,      32512,      256,      512, fc400f57348eea605797a76c23f01f29
0,      32768,      32768,      256,      512, 8b5495a5afa11a275712f5ba06babe60
0,      33024,      33024,      256,      512, 53deaf7eeceb50e373aebdaa5c16c809
0,      33280,      33280,      256,      512, 0f7a380965e2c641b27c4aab952472b6
0,      33536,      33536,      256,      512, 20986440e2e63e9bc082bbc05f2d2404
0,      33792,      33792,      256,      512, 20cb661581e9a938b943093dba07a48f
0,      34048,      34048,      256,      512, 6c1b00cc031df37816b497f451a84f28
0,      34304,      34304,      256,      512, e13d994830d387a17ca8caa90c0792e2
0,      34560,      34560,      256,      512, f4af3dbc544ffa0fdb8202d351eee457
0,      34816,      34816,      256,      512, 978c7b37408075e0dfde95093ec8a435
0,      35072,      35072,      256,      512, 212699956a56008e03fe6e3402f26168
0,      35328,      35328,      256,      512, a2848f1a75280acb4ebb76c2e759cfff
0,      35584,      35584,      256,      512, c3fa3b0b75654b231d576c9596ea21ab
0,      35840,      35840,      256,      512, c452c0ed97864edcc9f56e3577158040
0,      36096,      36096,      256,      512, 978f9f65b0b22b27bfc44c944afa9316
0,      36352,      36352,      256,      512, 947f93a8f88b694dff881ebdd05043db
0,      36608,      36608,      256,      512, 90220d48c7d3d13e170cbefbceb296e4
0,      36864,      36864,      256,      512, a4b2f929d327c34efc7444b8f781b263
0,      37120,      37120,      256,      512, 284c391f3d416ed7c244f7abe3a95442
0,      37376,      37376,      256,      512, 5d546c9b38a8562906f63e5118e7a42a
0,      37632,      37632,      256,      512, c1533a9a8d624d29eb6e31ceca19b041
0,      37888,      37888,      256,      512, f6763d4aca6038a9b1c5eb63a3206a94
0,      38144,      38144,      256,      512, 00c4bb8af75f66134fec2af86fe4aaaf
0,      38400,      38400,      256,      512, a2f97af985aca25803397fb2049acaff
0,      38656,      38656,      256,      512, ac63d37e935b99d187d48c486f7d73e2
0,      38912,      38912,      256,      512, 6a8e31b60e49716b01d893f3e05c1d27
0,      39168,      39168,      256,      512, addfcfc86fa76a4fd146863eada22cc2
0,      39424,      39424,      256,      512, caedc7bda3cd5b4982ed27deaa72af12
0,      39680,      39680,      256,      512, 6c6747469cba6d8d9c5a5f91d22293cf
0,      39936,      39936,      256,      512, 3acc6e3cd2c0c05d290d54e8d31cb72b
0,      40192,      40192,      256,      512, da9689042a1f04eea3db3e174ca0206a
0,      40448,      40448,      256,      512, 65cf3af1ee4c787695e114544c4a2c89
0,      40704,      40704,      256,      512, 05bdd1c7c8deb818b3aa1340bbfc4743
0,      40960,      40960,      256,      512, 2fa85432ac8f7f8f5ebada9dae3d415a
0,      41216,      41216,      256,      512, d589f8c9f1288e3fca7beb3ade64a21a
0,      41472,      41472,      256,      512, d7e4e599794e88ca1127fe9c1b1ddd19
0,      41728,      41728,      256,      512, ff0210998f9bb5326db0bd564fc54090
0,      41984,      41984,      256,      512, a78ae3d2f2004ad3ec29a2352cd4c070
0,      42240,      42240,      256,      512, 0eaa1c17c73322e499b4e723601c44ea
0,      42496,      42496,      256,      512, efbbb7b35a66abc7bc02609e2c6588f0
0,      42752,      42752,      256,      512, c8fbcbfe96e6ccf72da7911a5fe13963
0,      43008,      43008,      256,      512, 734649eb384ded7dca99fe15f4facec3
0,      43264,      43264,      256,      512, f8891e71d8a91963a76934b61a900b28
0,      43520,      43520,      256,      512, 9b052512c3b119799e37a2c5cc3839fd
0,      43776,      43776,      256,      512, b051e36d60eaca5bcbe341524aef7fb5
0,      44032,      44032,      256,      512, b1429d63d213a79087f67b31d843d8e9
0,      44288,      44288,      256,      512, be21f83858f1f2094bc07acf1d1bea1a
0,      44544,      44544,      256,      512, cd63cd74a590063f8621713fd33369ad
0,      44800,      44800,      256,      512, d04f37f302e3409ad018ff7198ea3335
0,      45056,      45056,      256,      512, 5dcc3589a327cbd338c95c900b7cd894
0,      45312,      45312,      256,      512, f5298e11756b8bf9c593323ed9030687
0,      45568,      45568,      256,      512, cf9be446df13df01ab753a6de9083f46
0,      45824,      45824,      256,      512, 171e096e1b67fff5dbca915664810a1d
0,      46080,      46080,      256,      512, 2a315457be38c35dd7c98f3c981cbdcd
0,      46336,      46336,      256,      512, 754c900d2a0a8c49e00ed3232720c4c8
0,      46592,      46592,      256,      512, fe1db9b06c51fd65b9e8bd2d19424fd5
0,      46848,      46848,      256,      512, 980d569dd197a3034bb9b6169cb71116
0,      47104,      47104,      256,      512, ff3c4216bf4dc5a3dc1907c7bdd080e3
0,      47360,      47360,      256,      512, bf8dcbad2d962de3fa9637ebb9ebba43
0,      47616,      47616,      256,      512, 3e3e8843483ab297caccc84308d3ce4e
0,      47872,      47872,      128,      256, 9ed309a331dbd515324dc9de238b605d
